<?xml version="1.0" standalone="no"?>
<!DOCTYPE svg PUBLIC "-//W3C//DTD SVG 20010904//EN"
 "http://www.w3.org/TR/2001/REC-SVG-20010904/DTD/svg10.dtd">
<svg version="1.0" xmlns="http://www.w3.org/2000/svg"
 width="900.000000pt" height="500.000000pt" viewBox="0 0 900.000000 500.000000"
 preserveAspectRatio="xMidYMid meet">

<g transform="translate(0.000000,500.000000) scale(0.100000,-0.100000)"
fill="#000000" stroke="none">
<path d="M7732 2629 c-66 -13 -104 -39 -129 -89 -22 -43 -23 -52 -23 -360 1
-329 5 -366 47 -412 61 -68 240 -77 325 -17 40 29 68 89 75 164 l6 65 -67 0
-66 0 0 -36 c0 -80 -66 -128 -136 -99 -62 26 -65 44 -62 345 3 268 3 268 27
294 32 34 80 42 119 22 38 -20 52 -44 52 -89 l0 -35 66 -4 66 -3 -5 62 c-7 71
-36 135 -73 159 -26 18 -126 44 -159 43 -11 -1 -40 -5 -63 -10z"/>
<path d="M4070 2173 l0 -453 65 0 65 0 0 453 0 452 -65 0 -65 0 0 -452z"/>
<path d="M4513 2623 l-73 -4 -105 -216 -105 -216 108 -231 109 -231 75 -3 76
-3 -115 233 -115 233 111 222 c61 123 110 222 108 221 -1 -1 -35 -4 -74 -5z"/>
<path d="M4913 2623 l-213 -3 0 -450 0 -450 215 0 215 0 0 58 0 57 -147 0
-148 0 -3 143 -3 142 136 0 135 0 0 58 0 57 -132 0 -133 0 -3 136 -3 136 140
8 c77 4 145 4 150 0 7 -4 11 15 11 54 0 34 -1 60 -2 59 -2 -2 -99 -4 -215 -5z"/>
<path d="M6510 2620 l-65 -5 0 -448 0 -447 191 0 192 0 7 38 c3 20 9 47 12 60
5 22 5 22 -131 22 l-136 0 -2 393 -3 392 -65 -5z"/>
<path d="M2015 2170 l0 -450 58 0 57 0 0 317 c0 348 1 353 53 228 29 -69 86
-200 115 -264 l20 -44 15 29 c8 16 45 99 82 184 37 85 74 162 82 170 12 13 13
-30 11 -303 l-3 -317 63 0 62 0 0 450 0 450 -73 0 -73 0 -16 -42 c-19 -49
-136 -316 -144 -330 -7 -11 -40 60 -115 239 l-54 133 -70 0 -70 0 0 -450z"/>
<path d="M2897 2473 c-20 -82 -55 -227 -77 -323 -23 -96 -54 -230 -70 -297
-17 -67 -30 -125 -30 -128 0 -3 29 -5 64 -5 67 0 76 6 76 51 0 11 7 51 16 90
l16 70 116 -3 117 -3 20 -102 20 -103 66 0 67 0 -29 118 c-15 64 -46 194 -68
287 -22 94 -57 243 -78 332 l-38 163 -76 0 -77 0 -35 -147z m157 -208 c20 -99
39 -190 42 -202 4 -23 2 -23 -87 -23 l-91 0 7 43 c4 23 22 114 41 203 19 89
34 165 34 170 0 4 4 4 8 -1 5 -6 25 -91 46 -190z"/>
<path d="M3390 2171 l0 -451 65 0 65 0 0 180 0 180 56 0 55 0 29 -62 c15 -35
51 -115 79 -178 l50 -115 75 -3 75 -3 -30 68 c-17 37 -56 119 -86 183 -50 106
-53 116 -36 125 48 26 92 85 104 139 18 81 8 242 -19 297 -38 78 -57 84 -284
87 l-198 4 0 -451z m314 335 c56 -23 66 -48 66 -159 0 -96 -1 -99 -29 -128
-28 -28 -33 -29 -125 -29 l-96 0 0 158 c0 87 3 162 7 165 12 13 143 7 177 -7z"/>
<path d="M5225 2570 l0 -50 88 0 87 0 0 -400 0 -400 65 0 65 0 0 400 0 400 90
0 90 0 0 50 0 50 -242 0 -243 0 0 -50z"/>
<path d="M5828 2171 l-3 -451 62 0 63 0 2 178 3 177 115 6 c124 6 162 18 199
65 35 45 43 92 40 236 -4 148 -10 166 -73 212 -25 19 -44 21 -217 24 l-189 4
-2 -451z m298 334 c45 -19 64 -64 64 -153 0 -136 -25 -162 -155 -162 l-85 0 0
158 c0 87 3 162 7 165 12 13 133 7 169 -8z"/>
<path d="M7127 2613 c-3 -5 -19 -71 -37 -148 -79 -342 -104 -449 -136 -583
-19 -79 -34 -148 -34 -153 0 -5 29 -9 64 -9 l63 0 19 103 19 102 117 3 c104 2
117 1 122 -15 3 -10 12 -57 22 -105 l17 -88 64 0 65 0 -7 28 c-8 29 -55 238
-109 477 -19 83 -46 196 -60 252 -14 56 -26 111 -26 122 0 19 -6 21 -79 21
-44 0 -82 -3 -84 -7z m93 -187 c0 -12 16 -93 35 -179 19 -86 35 -168 35 -182
0 -25 0 -25 -91 -25 -81 0 -90 2 -85 18 3 9 19 87 36 172 17 85 35 172 41 193
10 40 29 42 29 3z"/>
<path d="M8145 2170 l0 -450 213 0 212 0 0 55 0 54 -147 3 -148 3 0 145 0 145
133 3 132 3 0 52 0 52 -132 0 -133 0 -3 136 -3 137 151 7 150 7 0 49 0 49
-212 0 -213 0 0 -450z"/>
<path d="M8737 2600 c-56 -44 -40 -140 27 -158 73 -21 126 17 126 90 0 78 -90
117 -153 68z m103 0 c25 -13 41 -65 30 -95 -14 -36 -53 -58 -90 -50 -58 13
-78 79 -39 129 22 28 64 35 99 16z"/>
<path d="M8773 2530 c-1 -25 1 -37 4 -27 2 9 13 17 24 17 10 0 19 4 19 9 0 5
-9 7 -19 4 -14 -4 -21 1 -24 19 -2 12 -4 3 -4 -22z"/>
</g>
</svg>
